<svg xmlns="http://www.w3.org/2000/svg" style="position:absolute; width: 0; height: 0"><symbol viewBox="0 0 15 23" id="icon-back-arrow"><path d="M11.214 0L0 11.212l11.214 11.22 3.3-3.302L6.6 11.212l7.914-7.913z" fill-rule="evenodd"></path></symbol><symbol viewBox="0 0 34 33" id="icon-header-facebook"><path d="M5.812 3.436c4.534-4.262 15.927-4.89 21.483 0 6.26 5.51 9.034 14.562 3.695 22.214-6.593 9.45-17.882 8.488-24.698 4.339-4.898-2.98-11.06-16.61-.48-26.553zM18.361 26h-4.242V15.999H12v-3.446h2.12v-2.07C14.12 7.674 15.314 6 18.715 6h2.83v3.447h-1.769c-1.324 0-1.411.482-1.411 1.38l-.006 1.726h3.205l-.375 3.446h-2.83V26z" fill-rule="evenodd"></path></symbol><symbol viewBox="0 0 34 33" id="icon-header-gplus"><path d="M5.812 3.436c4.534-4.262 15.927-4.89 21.483 0 6.26 5.51 9.034 14.562 3.695 22.214-6.593 9.45-17.882 8.488-24.698 4.339-4.898-2.98-11.06-16.61-.48-26.553zm21.326 11.362v-2.866h-2.044v2.866h-2.943v2.048h2.943v2.949h2.044v-2.949H30v-2.048h-2.862zm-14.88-.163v3.276s3.173-.004 4.464-.004c-.7 2.124-1.787 3.28-4.464 3.28-2.71 0-4.824-2.2-4.824-4.914 0-2.714 2.115-4.915 4.824-4.915 1.432 0 2.357.505 3.206 1.208.68-.68.623-.778 2.35-2.413A8.22 8.22 0 0 0 12.259 8C7.698 8 4 11.704 4 16.273c0 4.569 3.697 8.272 8.258 8.272 6.817 0 8.483-5.946 7.93-9.91h-7.93z" fill-rule="evenodd"></path></symbol><symbol viewBox="0 0 34 33" id="icon-header-mail"><path d="M5.812 3.436c4.534-4.262 15.927-4.89 21.483 0 6.26 5.51 9.034 14.562 3.695 22.214-6.593 9.45-17.882 8.488-24.698 4.339-4.898-2.98-11.06-16.61-.48-26.553zm11.475 16.056a.706.706 0 0 1-.998 0l-9.19-9.19c-.027.113-.069.221-.069.343v11.292c0 .78.632 1.411 1.412 1.411h16.936c.778 0 1.411-.631 1.411-1.411V10.645c0-.193-.04-.378-.11-.545l-9.392 9.392zm-.499-1.497l8.731-8.731c-.05-.006-.09-.03-.141-.03H8.442c-.122 0-.232.041-.345.07l8.691 8.69z" fill-rule="evenodd"></path></symbol><symbol viewBox="0 0 34 33" id="icon-header-twitter"><path d="M5.812 3.436c4.534-4.262 15.927-4.89 21.483 0 6.26 5.51 9.034 14.562 3.695 22.214-6.593 9.45-17.882 8.488-24.698 4.339-4.898-2.98-11.06-16.61-.48-26.553zM27 10.973a8.015 8.015 0 0 1-2.356.662 4.198 4.198 0 0 0 1.804-2.327 8.081 8.081 0 0 1-2.607 1.02A4.047 4.047 0 0 0 20.846 9c-2.264 0-4.101 1.884-4.101 4.207 0 .33.035.65.105.959-3.41-.176-6.433-1.85-8.458-4.398a4.284 4.284 0 0 0-.555 2.118c0 1.459.724 2.747 1.825 3.501a4.029 4.029 0 0 1-1.859-.524v.051c0 2.04 1.415 3.74 3.293 4.126a3.913 3.913 0 0 1-1.081.148c-.265 0-.523-.025-.773-.075.523 1.671 2.037 2.888 3.833 2.92A8.102 8.102 0 0 1 7 23.779a11.424 11.424 0 0 0 6.29 1.889c7.548 0 11.674-6.41 11.674-11.971 0-.183-.003-.366-.01-.545A8.421 8.421 0 0 0 27 10.973z" fill-rule="evenodd"></path></symbol></svg>